# xmcd CD database file generated by Grip 3.0.0
# 
# Track frame offsets:
#       150
#       23578
#       54712
#       111413
#       131113
#       180494
#       213522
#       264178
#       305269
# 
# Disc length: 4453 seconds
# 
# Revision: 2
# Processed by: cddbd v1.5.1PL0 Copyright (c) Steve Scherf et al.
# Submitted via: Grip 3.0.0
# 
DISCID=79116309
DTITLE=John Mayall - Rockin' The Roadshow [CD1]
DYEAR=2003
DGENRE=Blues
TTITLE0=You Must be Crazy
TTITLE1=Crying
TTITLE2=Took The Car
TTITLE3=Blue Fox
TTITLE4=Devil's Tricks
TTITLE5=Don't Bring Me Down
TTITLE6=Won't Have To Worry
TTITLE7=Rock The Blues Tonight
TTITLE8=Goodtime Stomp
EXTD=
EXTT0=
EXTT1=
EXTT2=
EXTT3=
EXTT4=
EXTT5=
EXTT6=
EXTT7=
EXTT8=
PLAYORDER=
